# xmcd
#
# Track frame offsets:
#	150
#	22692
#	37174
#	50842
#	65298
#	80706
#	95851
#	111919
#	129159
#	150261
#	164808
#	186012
#	207834
#	222338
#	239225
#	257302
#	280593
#	308369
#	323593
#	324341
#
# Disc length: 4396 seconds
#
# Revision: 1
# Processed by: cddbd v1.5.2PL0 Copyright (c) Steve Scherf et al.
# Submitted via: audiograbber 1.83.01
#
DISCID=13112a14
DTITLE=Marvell - 2177788 Marvell
DYEAR=2001
DGENRE=Country
TTITLE0=Newage World  - Vega and Marvell
TTITLE1=Banking On Jesus  - Juliet Massey and Tommy Crews 
TTITLE2=Let The Wind Blow  - Larry Stone and Danny Ray Joines
TTITLE3=Only Christian Country  - Larry Stone and Danny Ray Joines
TTITLE4=Peace And Love  - James Marvell
TTITLE5=Temptation  - Vega
TTITLE6=Best Thing God Ever Made - B Good and J Marvell
TTITLE7=History  - James Marvell
TTITLE8=Prophecy  - James Marvell
TTITLE9=I´ve Seen His Star  - T Crews and J Marvell
TTITLE10=Profecia  - James Marvell
TTITLE11=Worship Praise And Dance  - Vega and John Dixon
TTITLE12=Obsesses Loco  - Vega and John Dixon
TTITLE13=He´s God  - Tid	Kunstner Diverse
TTITLE14=Mr Right  - Tid	Kunstner Diverse
TTITLE15=Journey To The Morning Star - Vega and Jason Sullivan
TTITLE16=How Great Thou Art  - Marvell
TTITLE17=Thank You For Jesus  - Steven Robert Bivins
TTITLE18=Radio Promos Radio Promos  - Marvell
TTITLE19=Radio Promos  - Marvell
EXTD=
EXTT0=
EXTT1=
EXTT2=
EXTT3=
EXTT4=
EXTT5=
EXTT6=
EXTT7=
EXTT8=
EXTT9=
EXTT10=
EXTT11=
EXTT12=
EXTT13=
EXTT14=
EXTT15=
EXTT16=
EXTT17=
EXTT18=
EXTT19=
PLAYORDER=
